<svg height="375pt" viewBox="-24 0 375 375.46667" width="375pt" xmlns="http://www.w3.org/2000/svg"><path d="m272.507812 88.953125 8.859376-8.859375 4.828124 4.828125c1.332032 1.332031 3.082032 2 4.828126 2 1.746093 0 3.492187-.667969 4.824218-2 2.667969-2.667969 2.667969-6.988281 0-9.65625l-9.644531-9.644531c-.003906-.003906-.003906-.007813-.007813-.011719-.003906 0-.007812 0-.011718-.003906l-9.644532-9.648438c-2.664062-2.664062-6.988281-2.664062-9.652343 0-2.667969 2.667969-2.667969 6.988281 0 9.652344l4.828125 4.828125-9.832032 9.832031c-25.609374-19.121093-56.976562-30.90625-90.984374-32.308593v-13.828126h17.066406c9.414062 0 17.070312-7.65625 17.070312-17.066406s-7.65625-17.066406-17.070312-17.066406h-47.785156c-9.410157 0-17.066407 7.65625-17.066407 17.066406s7.65625 17.066406 17.066407 17.066406h17.066406v13.828126c-37.453125 1.542968-71.691406 15.714843-98.578125 38.367187l-15.890625-15.890625 4.828125-4.828125c2.667969-2.664063 2.667969-6.984375 0-9.652344-2.664063-2.664062-6.984375-2.664062-9.652344 0l-9.644531 9.648438c-.003906.003906-.007813.003906-.011719.003906-.003906.003906-.003906.007813-.007813.011719l-9.644531 9.644531c-2.664062 2.667969-2.664062 6.988281 0 9.65625 1.332031 1.332031 3.082031 2 4.828125 2s3.492188-.667969 4.824219-2l4.828125-4.828125 15.453125 15.449219c-29.839844 29.691406-48.34375 70.765625-48.34375 116.082031 0 90.34375 73.5 163.839844 163.839844 163.839844 90.339843 0 163.839843-73.496094 163.839843-163.839844 0-48.785156-21.460937-92.632812-55.40625-122.671875zm-135.742187-71.886719c0-1.882812 1.53125-3.414062 3.414063-3.414062h47.785156c1.886718 0 3.414062 1.53125 3.414062 3.414062 0 1.882813-1.527344 3.414063-3.414062 3.414063h-23.710938c-.066406-.003907-.117187-.035157-.179687-.035157s-.117188.035157-.183594.035157h-23.710937c-1.882813 0-3.414063-1.53125-3.414063-3.414063zm27.308594 344.746094c-82.8125 0-150.1875-67.375-150.1875-150.1875s67.375-150.183594 150.1875-150.183594 150.1875 67.371094 150.1875 150.183594-67.375 150.1875-150.1875 150.1875zm0 0"/><path d="m227.523438 305.300781c-5.742188 3.898438-11.878907 7.289063-18.242188 10.0625-3.453125 1.511719-5.03125 5.535157-3.519531 8.992188 1.121093 2.566406 3.628906 4.09375 6.257812 4.09375.914063 0 1.839844-.183594 2.730469-.574219 7.128906-3.113281 14.003906-6.910156 20.441406-11.273438 3.121094-2.121093 3.933594-6.367187 1.816406-9.484374-2.121093-3.121094-6.371093-3.933594-9.484374-1.816407zm0 0"/><path d="m164.074219 84.84375c-69.910157 0-126.785157 56.871094-126.785157 126.78125s56.875 126.785156 126.785157 126.785156c3.769531 0 6.824219-3.058594 6.824219-6.828125s-3.054688-6.824219-6.824219-6.824219c-62.382813 0-113.128907-50.75-113.128907-113.132812 0-62.378906 50.746094-113.128906 113.128907-113.128906 62.378906 0 113.128906 50.75 113.128906 113.128906 0 25.40625-8.222656 49.40625-23.789063 69.410156-2.3125 2.972656-1.773437 7.261719 1.203126 9.578125 2.957031 2.304688 7.257812 1.773438 9.578124-1.199219 17.441407-22.421874 26.660157-49.320312 26.660157-77.789062 0-69.910156-56.871094-126.78125-126.78125-126.78125zm0 0"/><path d="m160.660156 184.320312c-13.175781 0-23.894531 10.71875-23.894531 23.894532 0 3.9375 1.050781 7.601562 2.746094 10.878906l-36.742188 33.128906c-2.800781 2.523438-3.023437 6.839844-.5 9.640625 1.347657 1.496094 3.207031 2.253907 5.074219 2.253907 1.625 0 3.261719-.578126 4.566406-1.753907l37.078125-33.433593c3.46875 1.960937 7.414063 3.175781 11.671875 3.175781 13.171875 0 23.894532-10.71875 23.894532-23.894531 0-13.171876-10.722657-23.890626-23.894532-23.890626zm0 34.132813c-5.648437 0-10.238281-4.59375-10.238281-10.238281 0-5.648438 4.589844-10.242188 10.238281-10.242188 5.648438 0 10.238282 4.59375 10.238282 10.242188 0 5.644531-4.589844 10.238281-10.238282 10.238281zm0 0"/></svg>